<mxfile host="app.diagrams.net" modified="2022-11-09T15:41:40.632Z" agent="5.0 (Windows NT 10.0; Win64; x64) AppleWebKit/537.36 (KHTML, like Gecko) Chrome/107.0.0.0 Safari/537.36" etag="fbH_Ti4hyPxz2FE-jF6_" version="20.5.3" type="github">
  <diagram id="_Dl1J_aaFCRTX_dGsgtm" name="Page-1">
    <mxGraphModel dx="1422" dy="762" grid="1" gridSize="10" guides="1" tooltips="1" connect="1" arrows="1" fold="1" page="1" pageScale="1" pageWidth="1654" pageHeight="1169" math="0" shadow="0">
      <root>
        <mxCell id="0" />
        <mxCell id="1" parent="0" />
        <mxCell id="0VWPptaesY_Yc4LKRavd-52" value="Oeuvre" style="swimlane;fontStyle=2;align=center;verticalAlign=top;childLayout=stackLayout;horizontal=1;startSize=26;horizontalStack=0;resizeParent=1;resizeParentMax=0;resizeLast=0;collapsible=1;marginBottom=0;" vertex="1" parent="1">
          <mxGeometry x="674" y="284" width="160" height="60" as="geometry">
            <mxRectangle x="280" y="200" width="80" height="30" as="alternateBounds" />
          </mxGeometry>
        </mxCell>
        <mxCell id="0VWPptaesY_Yc4LKRavd-53" value="+ nom" style="text;strokeColor=none;fillColor=none;align=left;verticalAlign=top;spacingLeft=4;spacingRight=4;overflow=hidden;rotatable=0;points=[[0,0.5],[1,0.5]];portConstraint=eastwest;" vertex="1" parent="0VWPptaesY_Yc4LKRavd-52">
          <mxGeometry y="26" width="160" height="26" as="geometry" />
        </mxCell>
        <mxCell id="0VWPptaesY_Yc4LKRavd-54" value="" style="line;strokeWidth=1;fillColor=none;align=left;verticalAlign=middle;spacingTop=-1;spacingLeft=3;spacingRight=3;rotatable=0;labelPosition=right;points=[];portConstraint=eastwest;strokeColor=inherit;" vertex="1" parent="0VWPptaesY_Yc4LKRavd-52">
          <mxGeometry y="52" width="160" height="8" as="geometry" />
        </mxCell>
        <mxCell id="0VWPptaesY_Yc4LKRavd-56" value="Serie" style="swimlane;fontStyle=2;align=center;verticalAlign=top;childLayout=stackLayout;horizontal=1;startSize=26;horizontalStack=0;resizeParent=1;resizeParentMax=0;resizeLast=0;collapsible=1;marginBottom=0;" vertex="1" parent="1">
          <mxGeometry x="704" y="560" width="100" height="60" as="geometry" />
        </mxCell>
        <mxCell id="0VWPptaesY_Yc4LKRavd-57" value="+ saison" style="text;strokeColor=none;fillColor=none;align=left;verticalAlign=top;spacingLeft=4;spacingRight=4;overflow=hidden;rotatable=0;points=[[0,0.5],[1,0.5]];portConstraint=eastwest;" vertex="1" parent="0VWPptaesY_Yc4LKRavd-56">
          <mxGeometry y="26" width="100" height="26" as="geometry" />
        </mxCell>
        <mxCell id="0VWPptaesY_Yc4LKRavd-58" value="" style="line;strokeWidth=1;fillColor=none;align=left;verticalAlign=middle;spacingTop=-1;spacingLeft=3;spacingRight=3;rotatable=0;labelPosition=right;points=[];portConstraint=eastwest;strokeColor=inherit;" vertex="1" parent="0VWPptaesY_Yc4LKRavd-56">
          <mxGeometry y="52" width="100" height="8" as="geometry" />
        </mxCell>
        <mxCell id="0VWPptaesY_Yc4LKRavd-60" value="SerieTv" style="swimlane;fontStyle=1;align=center;verticalAlign=top;childLayout=stackLayout;horizontal=1;startSize=26;horizontalStack=0;resizeParent=1;resizeParentMax=0;resizeLast=0;collapsible=1;marginBottom=0;" vertex="1" parent="1">
          <mxGeometry x="647" y="690" width="100" height="60" as="geometry" />
        </mxCell>
        <mxCell id="0VWPptaesY_Yc4LKRavd-106" value="+ chaine : String" style="text;strokeColor=none;fillColor=none;align=left;verticalAlign=top;spacingLeft=4;spacingRight=4;overflow=hidden;rotatable=0;points=[[0,0.5],[1,0.5]];portConstraint=eastwest;" vertex="1" parent="0VWPptaesY_Yc4LKRavd-60">
          <mxGeometry y="26" width="100" height="26" as="geometry" />
        </mxCell>
        <mxCell id="0VWPptaesY_Yc4LKRavd-62" value="" style="line;strokeWidth=1;fillColor=none;align=left;verticalAlign=middle;spacingTop=-1;spacingLeft=3;spacingRight=3;rotatable=0;labelPosition=right;points=[];portConstraint=eastwest;strokeColor=inherit;" vertex="1" parent="0VWPptaesY_Yc4LKRavd-60">
          <mxGeometry y="52" width="100" height="8" as="geometry" />
        </mxCell>
        <mxCell id="0VWPptaesY_Yc4LKRavd-65" value="SerieWeb" style="swimlane;fontStyle=1;align=center;verticalAlign=top;childLayout=stackLayout;horizontal=1;startSize=26;horizontalStack=0;resizeParent=1;resizeParentMax=0;resizeLast=0;collapsible=1;marginBottom=0;" vertex="1" parent="1">
          <mxGeometry x="761" y="690" width="100" height="60" as="geometry" />
        </mxCell>
        <mxCell id="0VWPptaesY_Yc4LKRavd-107" value="+ plateforme : String" style="text;strokeColor=none;fillColor=none;align=left;verticalAlign=top;spacingLeft=4;spacingRight=4;overflow=hidden;rotatable=0;points=[[0,0.5],[1,0.5]];portConstraint=eastwest;" vertex="1" parent="0VWPptaesY_Yc4LKRavd-65">
          <mxGeometry y="26" width="100" height="26" as="geometry" />
        </mxCell>
        <mxCell id="0VWPptaesY_Yc4LKRavd-67" value="" style="line;strokeWidth=1;fillColor=none;align=left;verticalAlign=middle;spacingTop=-1;spacingLeft=3;spacingRight=3;rotatable=0;labelPosition=right;points=[];portConstraint=eastwest;strokeColor=inherit;" vertex="1" parent="0VWPptaesY_Yc4LKRavd-65">
          <mxGeometry y="52" width="100" height="8" as="geometry" />
        </mxCell>
        <mxCell id="0VWPptaesY_Yc4LKRavd-69" value="CourtMetrage" style="swimlane;fontStyle=1;align=center;verticalAlign=top;childLayout=stackLayout;horizontal=1;startSize=26;horizontalStack=0;resizeParent=1;resizeParentMax=0;resizeLast=0;collapsible=1;marginBottom=0;" vertex="1" parent="1">
          <mxGeometry x="530" y="690" width="100" height="34" as="geometry" />
        </mxCell>
        <mxCell id="0VWPptaesY_Yc4LKRavd-71" value="" style="line;strokeWidth=1;fillColor=none;align=left;verticalAlign=middle;spacingTop=-1;spacingLeft=3;spacingRight=3;rotatable=0;labelPosition=right;points=[];portConstraint=eastwest;strokeColor=inherit;" vertex="1" parent="0VWPptaesY_Yc4LKRavd-69">
          <mxGeometry y="26" width="100" height="8" as="geometry" />
        </mxCell>
        <mxCell id="0VWPptaesY_Yc4LKRavd-72" value="LongMetrage" style="swimlane;fontStyle=1;align=center;verticalAlign=top;childLayout=stackLayout;horizontal=1;startSize=26;horizontalStack=0;resizeParent=1;resizeParentMax=0;resizeLast=0;collapsible=1;marginBottom=0;" vertex="1" parent="1">
          <mxGeometry x="410" y="690" width="100" height="34" as="geometry" />
        </mxCell>
        <mxCell id="0VWPptaesY_Yc4LKRavd-73" value="" style="line;strokeWidth=1;fillColor=none;align=left;verticalAlign=middle;spacingTop=-1;spacingLeft=3;spacingRight=3;rotatable=0;labelPosition=right;points=[];portConstraint=eastwest;strokeColor=inherit;" vertex="1" parent="0VWPptaesY_Yc4LKRavd-72">
          <mxGeometry y="26" width="100" height="8" as="geometry" />
        </mxCell>
        <mxCell id="0VWPptaesY_Yc4LKRavd-79" value="Realisateur_ice" style="swimlane;fontStyle=1;align=center;verticalAlign=top;childLayout=stackLayout;horizontal=1;startSize=26;horizontalStack=0;resizeParent=1;resizeParentMax=0;resizeLast=0;collapsible=1;marginBottom=0;" vertex="1" parent="1">
          <mxGeometry x="250" y="250" width="130" height="68" as="geometry" />
        </mxCell>
        <mxCell id="0VWPptaesY_Yc4LKRavd-80" value="+ id : String&#xa;+ name : String" style="text;strokeColor=none;fillColor=none;align=left;verticalAlign=top;spacingLeft=4;spacingRight=4;overflow=hidden;rotatable=0;points=[[0,0.5],[1,0.5]];portConstraint=eastwest;" vertex="1" parent="0VWPptaesY_Yc4LKRavd-79">
          <mxGeometry y="26" width="130" height="34" as="geometry" />
        </mxCell>
        <mxCell id="0VWPptaesY_Yc4LKRavd-81" value="" style="line;strokeWidth=1;fillColor=none;align=left;verticalAlign=middle;spacingTop=-1;spacingLeft=3;spacingRight=3;rotatable=0;labelPosition=right;points=[];portConstraint=eastwest;strokeColor=inherit;" vertex="1" parent="0VWPptaesY_Yc4LKRavd-79">
          <mxGeometry y="60" width="130" height="8" as="geometry" />
        </mxCell>
        <mxCell id="0VWPptaesY_Yc4LKRavd-83" value="Producteur_ice" style="swimlane;fontStyle=1;align=center;verticalAlign=top;childLayout=stackLayout;horizontal=1;startSize=26;horizontalStack=0;resizeParent=1;resizeParentMax=0;resizeLast=0;collapsible=1;marginBottom=0;" vertex="1" parent="1">
          <mxGeometry x="250" y="170" width="130" height="68" as="geometry" />
        </mxCell>
        <mxCell id="0VWPptaesY_Yc4LKRavd-84" value="+ id : String&#xa;+ name : String" style="text;strokeColor=none;fillColor=none;align=left;verticalAlign=top;spacingLeft=4;spacingRight=4;overflow=hidden;rotatable=0;points=[[0,0.5],[1,0.5]];portConstraint=eastwest;" vertex="1" parent="0VWPptaesY_Yc4LKRavd-83">
          <mxGeometry y="26" width="130" height="34" as="geometry" />
        </mxCell>
        <mxCell id="0VWPptaesY_Yc4LKRavd-85" value="" style="line;strokeWidth=1;fillColor=none;align=left;verticalAlign=middle;spacingTop=-1;spacingLeft=3;spacingRight=3;rotatable=0;labelPosition=right;points=[];portConstraint=eastwest;strokeColor=inherit;" vertex="1" parent="0VWPptaesY_Yc4LKRavd-83">
          <mxGeometry y="60" width="130" height="8" as="geometry" />
        </mxCell>
        <mxCell id="0VWPptaesY_Yc4LKRavd-111" value="rÃ©alise" style="html=1;verticalAlign=bottom;endArrow=block;rounded=0;strokeColor=#000000;edgeStyle=orthogonalEdgeStyle;" edge="1" parent="1" source="0VWPptaesY_Yc4LKRavd-79" target="0VWPptaesY_Yc4LKRavd-52">
          <mxGeometry width="80" relative="1" as="geometry">
            <mxPoint x="230" y="430" as="sourcePoint" />
            <mxPoint x="310" y="430" as="targetPoint" />
            <Array as="points">
              <mxPoint x="315" y="314" />
            </Array>
          </mxGeometry>
        </mxCell>
        <mxCell id="0VWPptaesY_Yc4LKRavd-112" value="est" style="html=1;verticalAlign=bottom;endArrow=block;rounded=0;strokeColor=#000000;entryX=0.5;entryY=0;entryDx=0;entryDy=0;edgeStyle=orthogonalEdgeStyle;endFill=0;" edge="1" parent="1" source="0VWPptaesY_Yc4LKRavd-52" target="0VWPptaesY_Yc4LKRavd-56">
          <mxGeometry width="80" relative="1" as="geometry">
            <mxPoint x="580" y="400" as="sourcePoint" />
            <mxPoint x="660" y="400" as="targetPoint" />
          </mxGeometry>
        </mxCell>
        <mxCell id="0VWPptaesY_Yc4LKRavd-113" value="est" style="html=1;verticalAlign=bottom;endArrow=block;rounded=0;strokeColor=#000000;edgeStyle=elbowEdgeStyle;endFill=0;" edge="1" parent="1" source="0VWPptaesY_Yc4LKRavd-56" target="0VWPptaesY_Yc4LKRavd-60">
          <mxGeometry width="80" relative="1" as="geometry">
            <mxPoint x="599.9971428571429" y="570" as="sourcePoint" />
            <mxPoint x="600.14" y="656" as="targetPoint" />
          </mxGeometry>
        </mxCell>
        <mxCell id="0VWPptaesY_Yc4LKRavd-114" value="est" style="html=1;verticalAlign=bottom;endArrow=block;rounded=0;strokeColor=#000000;edgeStyle=elbowEdgeStyle;endFill=0;" edge="1" parent="1" source="0VWPptaesY_Yc4LKRavd-56" target="0VWPptaesY_Yc4LKRavd-65">
          <mxGeometry width="80" relative="1" as="geometry">
            <mxPoint x="735.2857142857142" y="630" as="sourcePoint" />
            <mxPoint x="735.2857142857142" y="700" as="targetPoint" />
          </mxGeometry>
        </mxCell>
        <mxCell id="0VWPptaesY_Yc4LKRavd-115" value="est" style="html=1;verticalAlign=bottom;endArrow=block;rounded=0;strokeColor=#000000;edgeStyle=orthogonalEdgeStyle;endFill=0;" edge="1" parent="1" source="0VWPptaesY_Yc4LKRavd-52" target="0VWPptaesY_Yc4LKRavd-69">
          <mxGeometry width="80" relative="1" as="geometry">
            <mxPoint x="579.7171428571429" y="430" as="sourcePoint" />
            <mxPoint x="579.86" y="516" as="targetPoint" />
            <Array as="points">
              <mxPoint x="754" y="370" />
              <mxPoint x="580" y="370" />
            </Array>
          </mxGeometry>
        </mxCell>
        <mxCell id="0VWPptaesY_Yc4LKRavd-116" value="est" style="html=1;verticalAlign=bottom;endArrow=block;rounded=0;strokeColor=#000000;edgeStyle=orthogonalEdgeStyle;endFill=0;exitX=0.5;exitY=1;exitDx=0;exitDy=0;" edge="1" parent="1" source="0VWPptaesY_Yc4LKRavd-52" target="0VWPptaesY_Yc4LKRavd-72">
          <mxGeometry width="80" relative="1" as="geometry">
            <mxPoint x="830" y="360" as="sourcePoint" />
            <mxPoint x="590.0285714285715" y="570" as="targetPoint" />
            <Array as="points">
              <mxPoint x="754" y="350" />
              <mxPoint x="460" y="350" />
            </Array>
          </mxGeometry>
        </mxCell>
        <mxCell id="0VWPptaesY_Yc4LKRavd-119" value="produit" style="html=1;verticalAlign=bottom;endArrow=none;rounded=0;strokeColor=#000000;edgeStyle=orthogonalEdgeStyle;endFill=0;startArrow=diamondThin;startFill=1;" edge="1" parent="1" source="0VWPptaesY_Yc4LKRavd-83" target="0VWPptaesY_Yc4LKRavd-52">
          <mxGeometry width="80" relative="1" as="geometry">
            <mxPoint x="270" y="200" as="sourcePoint" />
            <mxPoint x="350" y="200" as="targetPoint" />
          </mxGeometry>
        </mxCell>
        <mxCell id="0VWPptaesY_Yc4LKRavd-151" style="edgeStyle=orthogonalEdgeStyle;rounded=0;orthogonalLoop=1;jettySize=auto;html=1;strokeColor=#000000;endArrow=none;endFill=0;dashed=1;" edge="1" parent="1" source="0VWPptaesY_Yc4LKRavd-120">
          <mxGeometry relative="1" as="geometry">
            <mxPoint x="980" y="310" as="targetPoint" />
          </mxGeometry>
        </mxCell>
        <mxCell id="0VWPptaesY_Yc4LKRavd-120" value="Lieu" style="swimlane;fontStyle=1;align=center;verticalAlign=top;childLayout=stackLayout;horizontal=1;startSize=26;horizontalStack=0;resizeParent=1;resizeParentMax=0;resizeLast=0;collapsible=1;marginBottom=0;" vertex="1" parent="1">
          <mxGeometry x="900" y="120" width="160" height="114" as="geometry" />
        </mxCell>
        <mxCell id="0VWPptaesY_Yc4LKRavd-121" value="+ longitude : long&#xa;+ latitude : long&#xa;+ adresse : String" style="text;strokeColor=none;fillColor=none;align=left;verticalAlign=top;spacingLeft=4;spacingRight=4;overflow=hidden;rotatable=0;points=[[0,0.5],[1,0.5]];portConstraint=eastwest;" vertex="1" parent="0VWPptaesY_Yc4LKRavd-120">
          <mxGeometry y="26" width="160" height="54" as="geometry" />
        </mxCell>
        <mxCell id="0VWPptaesY_Yc4LKRavd-122" value="" style="line;strokeWidth=1;fillColor=none;align=left;verticalAlign=middle;spacingTop=-1;spacingLeft=3;spacingRight=3;rotatable=0;labelPosition=right;points=[];portConstraint=eastwest;strokeColor=inherit;" vertex="1" parent="0VWPptaesY_Yc4LKRavd-120">
          <mxGeometry y="80" width="160" height="8" as="geometry" />
        </mxCell>
        <mxCell id="0VWPptaesY_Yc4LKRavd-123" value="+ method(type): type" style="text;strokeColor=none;fillColor=none;align=left;verticalAlign=top;spacingLeft=4;spacingRight=4;overflow=hidden;rotatable=0;points=[[0,0.5],[1,0.5]];portConstraint=eastwest;" vertex="1" parent="0VWPptaesY_Yc4LKRavd-120">
          <mxGeometry y="88" width="160" height="26" as="geometry" />
        </mxCell>
        <mxCell id="0VWPptaesY_Yc4LKRavd-124" value="Tournage" style="swimlane;fontStyle=1;align=center;verticalAlign=top;childLayout=stackLayout;horizontal=1;startSize=26;horizontalStack=0;resizeParent=1;resizeParentMax=0;resizeLast=0;collapsible=1;marginBottom=0;" vertex="1" parent="1">
          <mxGeometry x="1160" y="262" width="160" height="104" as="geometry" />
        </mxCell>
        <mxCell id="0VWPptaesY_Yc4LKRavd-125" value="+ debut : Date&#xa;+ fin : Date" style="text;strokeColor=none;fillColor=none;align=left;verticalAlign=top;spacingLeft=4;spacingRight=4;overflow=hidden;rotatable=0;points=[[0,0.5],[1,0.5]];portConstraint=eastwest;" vertex="1" parent="0VWPptaesY_Yc4LKRavd-124">
          <mxGeometry y="26" width="160" height="44" as="geometry" />
        </mxCell>
        <mxCell id="0VWPptaesY_Yc4LKRavd-126" value="" style="line;strokeWidth=1;fillColor=none;align=left;verticalAlign=middle;spacingTop=-1;spacingLeft=3;spacingRight=3;rotatable=0;labelPosition=right;points=[];portConstraint=eastwest;strokeColor=inherit;" vertex="1" parent="0VWPptaesY_Yc4LKRavd-124">
          <mxGeometry y="70" width="160" height="8" as="geometry" />
        </mxCell>
        <mxCell id="0VWPptaesY_Yc4LKRavd-127" value="dateDuTournage(debut.year)" style="text;strokeColor=none;fillColor=none;align=left;verticalAlign=top;spacingLeft=4;spacingRight=4;overflow=hidden;rotatable=0;points=[[0,0.5],[1,0.5]];portConstraint=eastwest;" vertex="1" parent="0VWPptaesY_Yc4LKRavd-124">
          <mxGeometry y="78" width="160" height="26" as="geometry" />
        </mxCell>
        <mxCell id="0VWPptaesY_Yc4LKRavd-130" value="est tounÃ©e" style="html=1;verticalAlign=bottom;endArrow=block;rounded=0;strokeColor=#000000;edgeStyle=orthogonalEdgeStyle;" edge="1" parent="1" source="0VWPptaesY_Yc4LKRavd-52" target="0VWPptaesY_Yc4LKRavd-124">
          <mxGeometry width="80" relative="1" as="geometry">
            <mxPoint x="880" y="380" as="sourcePoint" />
            <mxPoint x="960" y="380" as="targetPoint" />
          </mxGeometry>
        </mxCell>
        <mxCell id="0VWPptaesY_Yc4LKRavd-143" value="0..*" style="text;html=1;align=center;verticalAlign=middle;resizable=0;points=[];autosize=1;strokeColor=none;fillColor=none;" vertex="1" parent="1">
          <mxGeometry x="630" y="262" width="40" height="30" as="geometry" />
        </mxCell>
        <mxCell id="0VWPptaesY_Yc4LKRavd-144" value="1..*" style="text;html=1;align=center;verticalAlign=middle;resizable=0;points=[];autosize=1;strokeColor=none;fillColor=none;" vertex="1" parent="1">
          <mxGeometry x="380" y="262" width="40" height="30" as="geometry" />
        </mxCell>
        <mxCell id="0VWPptaesY_Yc4LKRavd-145" value="1" style="text;html=1;align=center;verticalAlign=middle;resizable=0;points=[];autosize=1;strokeColor=none;fillColor=none;" vertex="1" parent="1">
          <mxGeometry x="380" y="180" width="30" height="30" as="geometry" />
        </mxCell>
        <mxCell id="0VWPptaesY_Yc4LKRavd-146" value="*" style="text;html=1;align=center;verticalAlign=middle;resizable=0;points=[];autosize=1;strokeColor=none;fillColor=none;" vertex="1" parent="1">
          <mxGeometry x="747" y="262" width="30" height="30" as="geometry" />
        </mxCell>
        <mxCell id="0VWPptaesY_Yc4LKRavd-152" value="1" style="text;html=1;align=center;verticalAlign=middle;resizable=0;points=[];autosize=1;strokeColor=none;fillColor=none;" vertex="1" parent="1">
          <mxGeometry x="827" y="292" width="30" height="30" as="geometry" />
        </mxCell>
        <mxCell id="0VWPptaesY_Yc4LKRavd-153" value="1..*" style="text;html=1;align=center;verticalAlign=middle;resizable=0;points=[];autosize=1;strokeColor=none;fillColor=none;" vertex="1" parent="1">
          <mxGeometry x="1115" y="284" width="40" height="30" as="geometry" />
        </mxCell>
      </root>
    </mxGraphModel>
  </diagram>
</mxfile>
